<mxfile host="app.diagrams.net" modified="2023-11-20T08:58:03.277Z" agent="Mozilla/5.0 (Windows NT 10.0; Win64; x64) AppleWebKit/537.36 (KHTML, like Gecko) Chrome/119.0.0.0 Safari/537.36" etag="EFy17F3cScRR3WTSVpFG" version="22.1.3" type="google">
  <diagram id="prtHgNgQTEPvFCAcTncT" name="Page-1">
    <mxGraphModel grid="1" page="1" gridSize="10" guides="1" tooltips="1" connect="1" arrows="1" fold="1" pageScale="1" pageWidth="827" pageHeight="1169" math="0" shadow="0">
      <root>
        <mxCell id="0" />
        <mxCell id="1" parent="0" />
        <mxCell id="-VUcaM_2SgdDJ1QQ1DZj-8" value="&lt;font style=&quot;font-size: 8px;&quot;&gt;New&lt;/font&gt;" style="text;html=1;strokeColor=none;fillColor=none;align=center;verticalAlign=middle;whiteSpace=wrap;rounded=0;" vertex="1" parent="1">
          <mxGeometry x="170" y="90" width="60" height="30" as="geometry" />
        </mxCell>
        <mxCell id="-VUcaM_2SgdDJ1QQ1DZj-9" value="&lt;font style=&quot;font-size: 8px;&quot;&gt;In Progress&lt;/font&gt;" style="text;html=1;strokeColor=none;fillColor=none;align=center;verticalAlign=middle;whiteSpace=wrap;rounded=0;" vertex="1" parent="1">
          <mxGeometry x="300" y="90" width="60" height="30" as="geometry" />
        </mxCell>
        <mxCell id="-VUcaM_2SgdDJ1QQ1DZj-10" value="&lt;font style=&quot;font-size: 8px;&quot;&gt;Staging QA1&lt;/font&gt;" style="text;html=1;strokeColor=none;fillColor=none;align=center;verticalAlign=middle;whiteSpace=wrap;rounded=0;" vertex="1" parent="1">
          <mxGeometry x="500" y="87.5" width="60" height="30" as="geometry" />
        </mxCell>
        <mxCell id="-VUcaM_2SgdDJ1QQ1DZj-135" value="&lt;font style=&quot;font-size: 8px;&quot;&gt;Staging QA2&lt;/font&gt;" style="text;html=1;strokeColor=none;fillColor=none;align=center;verticalAlign=middle;whiteSpace=wrap;rounded=0;" vertex="1" parent="1">
          <mxGeometry x="750" y="87.5" width="60" height="30" as="geometry" />
        </mxCell>
        <mxCell id="-VUcaM_2SgdDJ1QQ1DZj-247" value="&lt;font style=&quot;font-size: 8px;&quot;&gt;Staging Failed&lt;/font&gt;" style="text;html=1;strokeColor=none;fillColor=none;align=center;verticalAlign=middle;whiteSpace=wrap;rounded=0;" vertex="1" parent="1">
          <mxGeometry x="980" y="87.5" width="60" height="30" as="geometry" />
        </mxCell>
        <mxCell id="-VUcaM_2SgdDJ1QQ1DZj-254" value="&lt;font style=&quot;font-size: 8px;&quot;&gt;Prod Failed&lt;/font&gt;" style="text;html=1;strokeColor=none;fillColor=none;align=center;verticalAlign=middle;whiteSpace=wrap;rounded=0;" vertex="1" parent="1">
          <mxGeometry x="1740" y="87.5" width="60" height="30" as="geometry" />
        </mxCell>
        <mxCell id="-VUcaM_2SgdDJ1QQ1DZj-255" value="&lt;font style=&quot;font-size: 8px;&quot;&gt;Resolved&lt;/font&gt;" style="text;html=1;strokeColor=none;fillColor=none;align=center;verticalAlign=middle;whiteSpace=wrap;rounded=0;" vertex="1" parent="1">
          <mxGeometry x="1890" y="87.5" width="60" height="30" as="geometry" />
        </mxCell>
        <mxCell id="-VUcaM_2SgdDJ1QQ1DZj-260" value="&lt;font style=&quot;font-size: 16px;&quot;&gt;Ticket LifeCycle&lt;/font&gt;" style="text;html=1;strokeColor=none;fillColor=none;align=center;verticalAlign=middle;whiteSpace=wrap;rounded=0;" vertex="1" parent="1">
          <mxGeometry x="110" y="40" width="150" height="30" as="geometry" />
        </mxCell>
        <mxCell id="dNxyNK7c78bLwvsdeMH5-19" value="" style="swimlane;html=1;childLayout=stackLayout;resizeParent=1;resizeParentMax=0;horizontal=0;startSize=0;horizontalStack=0;strokeColor=none;swimlaneFillColor=#DBD8DF;movable=1;resizable=1;rotatable=1;deletable=1;editable=1;locked=0;connectable=1;" vertex="1" parent="1">
          <mxGeometry x="140" y="110" width="1910" height="225" as="geometry">
            <mxRectangle x="120" y="120" width="40" height="60" as="alternateBounds" />
          </mxGeometry>
        </mxCell>
        <mxCell id="dNxyNK7c78bLwvsdeMH5-20" value="&lt;font color=&quot;#ffffff&quot;&gt;DEV&lt;/font&gt;" style="swimlane;html=1;startSize=20;horizontal=0;fillColor=#EE7423;strokeColor=none;fontColor=#000000;swimlaneLine=0;strokeWidth=0;gradientColor=none;swimlaneFillColor=#FAE3D3;fillStyle=auto;" vertex="1" parent="dNxyNK7c78bLwvsdeMH5-19">
          <mxGeometry width="1910" height="80" as="geometry" />
        </mxCell>
        <mxCell id="-VUcaM_2SgdDJ1QQ1DZj-12" style="edgeStyle=orthogonalEdgeStyle;rounded=0;orthogonalLoop=1;jettySize=auto;html=1;exitX=1;exitY=0.5;exitDx=0;exitDy=0;entryX=0;entryY=0.5;entryDx=0;entryDy=0;endSize=3;strokeColor=#4D4D4D;" edge="1" parent="dNxyNK7c78bLwvsdeMH5-20" source="dNxyNK7c78bLwvsdeMH5-26" target="-VUcaM_2SgdDJ1QQ1DZj-2">
          <mxGeometry relative="1" as="geometry" />
        </mxCell>
        <mxCell id="dNxyNK7c78bLwvsdeMH5-26" value="&lt;p style=&quot;line-height: 70%;&quot;&gt;&lt;font style=&quot;font-size: 7px;&quot;&gt;Develop Feature/Fix Bug&lt;/font&gt;&lt;/p&gt;" style="rounded=0;whiteSpace=wrap;html=1;fontFamily=Helvetica;fontSize=12;fontColor=#000000;align=center;strokeColor=none;" vertex="1" parent="dNxyNK7c78bLwvsdeMH5-20">
          <mxGeometry x="120" y="25" width="40" height="40" as="geometry" />
        </mxCell>
        <mxCell id="-VUcaM_2SgdDJ1QQ1DZj-17" style="edgeStyle=orthogonalEdgeStyle;rounded=0;orthogonalLoop=1;jettySize=auto;html=1;exitX=1;exitY=0.5;exitDx=0;exitDy=0;entryX=0;entryY=0.5;entryDx=0;entryDy=0;endSize=3;strokeColor=#4D4D4D;" edge="1" parent="dNxyNK7c78bLwvsdeMH5-20" source="-VUcaM_2SgdDJ1QQ1DZj-2" target="-VUcaM_2SgdDJ1QQ1DZj-3">
          <mxGeometry relative="1" as="geometry" />
        </mxCell>
        <mxCell id="-VUcaM_2SgdDJ1QQ1DZj-2" value="&lt;p style=&quot;line-height: 70%;&quot;&gt;&lt;font style=&quot;font-size: 7px;&quot;&gt;Unit Testing&lt;/font&gt;&lt;/p&gt;" style="rounded=0;whiteSpace=wrap;html=1;fontFamily=Helvetica;fontSize=12;fontColor=#000000;align=center;strokeColor=none;" vertex="1" parent="dNxyNK7c78bLwvsdeMH5-20">
          <mxGeometry x="180" y="25" width="40" height="40" as="geometry" />
        </mxCell>
        <mxCell id="-VUcaM_2SgdDJ1QQ1DZj-18" style="edgeStyle=orthogonalEdgeStyle;rounded=0;orthogonalLoop=1;jettySize=auto;html=1;exitX=1;exitY=0.5;exitDx=0;exitDy=0;entryX=0;entryY=0.5;entryDx=0;entryDy=0;endSize=3;strokeColor=#4D4D4D;" edge="1" parent="dNxyNK7c78bLwvsdeMH5-20" source="-VUcaM_2SgdDJ1QQ1DZj-3" target="-VUcaM_2SgdDJ1QQ1DZj-4">
          <mxGeometry relative="1" as="geometry" />
        </mxCell>
        <mxCell id="-VUcaM_2SgdDJ1QQ1DZj-3" value="&lt;p style=&quot;line-height: 70%;&quot;&gt;&lt;font style=&quot;font-size: 7px;&quot;&gt;Integration Testing&lt;/font&gt;&lt;/p&gt;" style="rounded=0;whiteSpace=wrap;html=1;fontFamily=Helvetica;fontSize=12;fontColor=#000000;align=center;strokeColor=none;" vertex="1" parent="dNxyNK7c78bLwvsdeMH5-20">
          <mxGeometry x="250" y="25" width="40" height="40" as="geometry" />
        </mxCell>
        <mxCell id="-VUcaM_2SgdDJ1QQ1DZj-4" value="&lt;p style=&quot;line-height: 70%;&quot;&gt;&lt;font style=&quot;font-size: 7px;&quot;&gt;Deploy to Staging&lt;/font&gt;&lt;/p&gt;" style="rounded=0;whiteSpace=wrap;html=1;fontFamily=Helvetica;fontSize=12;fontColor=#000000;align=center;strokeColor=none;" vertex="1" parent="dNxyNK7c78bLwvsdeMH5-20">
          <mxGeometry x="320" y="25" width="40" height="40" as="geometry" />
        </mxCell>
        <mxCell id="-VUcaM_2SgdDJ1QQ1DZj-242" value="&lt;p style=&quot;line-height: 70%;&quot;&gt;&lt;span style=&quot;font-size: 7px;&quot;&gt;Done!&lt;/span&gt;&lt;/p&gt;" style="rounded=0;whiteSpace=wrap;html=1;fontFamily=Helvetica;fontSize=12;fontColor=#000000;align=center;strokeColor=none;" vertex="1" parent="dNxyNK7c78bLwvsdeMH5-20">
          <mxGeometry x="1790" y="18.75" width="40" height="40" as="geometry" />
        </mxCell>
        <mxCell id="-VUcaM_2SgdDJ1QQ1DZj-127" value="&lt;p style=&quot;line-height: 70%;&quot;&gt;&lt;span style=&quot;font-size: 7px;&quot;&gt;Deploy to prod&lt;/span&gt;&lt;/p&gt;" style="rounded=0;whiteSpace=wrap;html=1;fontFamily=Helvetica;fontSize=12;fontColor=#000000;align=center;strokeColor=none;" vertex="1" parent="dNxyNK7c78bLwvsdeMH5-20">
          <mxGeometry x="1040" y="25" width="40" height="40" as="geometry" />
        </mxCell>
        <mxCell id="dNxyNK7c78bLwvsdeMH5-21" value="&lt;font color=&quot;#ffffff&quot;&gt;BU&lt;/font&gt;" style="swimlane;html=1;startSize=20;horizontal=0;fillColor=#0D6D6E;strokeColor=none;swimlaneFillColor=#CFE1E1;" vertex="1" parent="dNxyNK7c78bLwvsdeMH5-19">
          <mxGeometry y="80" width="1910" height="75" as="geometry" />
        </mxCell>
        <mxCell id="-VUcaM_2SgdDJ1QQ1DZj-51" style="edgeStyle=orthogonalEdgeStyle;rounded=0;orthogonalLoop=1;jettySize=auto;html=1;exitX=1;exitY=0.5;exitDx=0;exitDy=0;entryX=0;entryY=0.5;entryDx=0;entryDy=0;strokeColor=#4D4D4D;" edge="1" parent="dNxyNK7c78bLwvsdeMH5-21" source="-VUcaM_2SgdDJ1QQ1DZj-47" target="-VUcaM_2SgdDJ1QQ1DZj-49">
          <mxGeometry relative="1" as="geometry" />
        </mxCell>
        <mxCell id="-VUcaM_2SgdDJ1QQ1DZj-47" value="&lt;p style=&quot;line-height: 50%;&quot;&gt;&lt;font style=&quot;font-size: 7px;&quot;&gt;Who &lt;br&gt;tests &lt;br&gt;first &lt;br&gt;?&lt;/font&gt;&lt;/p&gt;" style="rhombus;whiteSpace=wrap;html=1;strokeColor=none;" vertex="1" parent="dNxyNK7c78bLwvsdeMH5-21">
          <mxGeometry x="385" y="10" width="40" height="50" as="geometry" />
        </mxCell>
        <mxCell id="-VUcaM_2SgdDJ1QQ1DZj-49" value="&lt;p style=&quot;line-height: 70%;&quot;&gt;&lt;font style=&quot;font-size: 7px;&quot;&gt;UAT&lt;br&gt;testing&lt;/font&gt;&lt;/p&gt;" style="rounded=0;whiteSpace=wrap;html=1;fontFamily=Helvetica;fontSize=12;fontColor=#000000;align=center;strokeColor=none;" vertex="1" parent="dNxyNK7c78bLwvsdeMH5-21">
          <mxGeometry x="450" y="15" width="40" height="40" as="geometry" />
        </mxCell>
        <mxCell id="-VUcaM_2SgdDJ1QQ1DZj-54" value="&lt;font style=&quot;font-size: 7px;&quot;&gt;BU&lt;/font&gt;" style="text;html=1;strokeColor=none;fillColor=none;align=center;verticalAlign=middle;whiteSpace=wrap;rounded=0;" vertex="1" parent="dNxyNK7c78bLwvsdeMH5-21">
          <mxGeometry x="425" y="20" width="10" height="10" as="geometry" />
        </mxCell>
        <mxCell id="-VUcaM_2SgdDJ1QQ1DZj-67" value="&lt;p style=&quot;line-height: 70%;&quot;&gt;&lt;font style=&quot;font-size: 7px;&quot;&gt;UAT&lt;br&gt;testing&lt;/font&gt;&lt;/p&gt;" style="rounded=0;whiteSpace=wrap;html=1;fontFamily=Helvetica;fontSize=12;fontColor=#000000;align=center;strokeColor=none;" vertex="1" parent="dNxyNK7c78bLwvsdeMH5-21">
          <mxGeometry x="610" y="15" width="40" height="40" as="geometry" />
        </mxCell>
        <mxCell id="-VUcaM_2SgdDJ1QQ1DZj-265" value="&lt;font style=&quot;font-size: 7px;&quot;&gt;No&lt;/font&gt;" style="text;html=1;strokeColor=none;fillColor=none;align=center;verticalAlign=middle;whiteSpace=wrap;rounded=0;" vertex="1" parent="dNxyNK7c78bLwvsdeMH5-21">
          <mxGeometry x="700" y="50" width="10" height="10" as="geometry" />
        </mxCell>
        <mxCell id="-VUcaM_2SgdDJ1QQ1DZj-266" value="&lt;font style=&quot;font-size: 7px;&quot;&gt;Yes&lt;/font&gt;" style="text;html=1;strokeColor=none;fillColor=none;align=center;verticalAlign=middle;whiteSpace=wrap;rounded=0;" vertex="1" parent="dNxyNK7c78bLwvsdeMH5-21">
          <mxGeometry x="740" y="65" width="10" height="10" as="geometry" />
        </mxCell>
        <mxCell id="-VUcaM_2SgdDJ1QQ1DZj-61" value="&lt;font style=&quot;font-size: 7px;&quot;&gt;Yes&lt;/font&gt;" style="text;html=1;strokeColor=none;fillColor=none;align=center;verticalAlign=middle;whiteSpace=wrap;rounded=0;" vertex="1" parent="dNxyNK7c78bLwvsdeMH5-21">
          <mxGeometry x="520" y="45" width="10" height="10" as="geometry" />
        </mxCell>
        <mxCell id="-VUcaM_2SgdDJ1QQ1DZj-279" value="&lt;font style=&quot;font-size: 7px;&quot;&gt;No&lt;/font&gt;" style="text;html=1;strokeColor=none;fillColor=none;align=center;verticalAlign=middle;whiteSpace=wrap;rounded=0;" vertex="1" parent="dNxyNK7c78bLwvsdeMH5-21">
          <mxGeometry x="1470" y="43.75" width="10" height="10" as="geometry" />
        </mxCell>
        <mxCell id="-VUcaM_2SgdDJ1QQ1DZj-280" value="&lt;font style=&quot;font-size: 7px;&quot;&gt;Yes&lt;/font&gt;" style="text;html=1;strokeColor=none;fillColor=none;align=center;verticalAlign=middle;whiteSpace=wrap;rounded=0;" vertex="1" parent="dNxyNK7c78bLwvsdeMH5-21">
          <mxGeometry x="1524" y="55" width="10" height="10" as="geometry" />
        </mxCell>
        <mxCell id="-VUcaM_2SgdDJ1QQ1DZj-298" value="&lt;font style=&quot;font-size: 7px;&quot;&gt;Yes&lt;/font&gt;" style="text;html=1;strokeColor=none;fillColor=none;align=center;verticalAlign=middle;whiteSpace=wrap;rounded=0;" vertex="1" parent="dNxyNK7c78bLwvsdeMH5-21">
          <mxGeometry x="1300" y="50" width="10" height="10" as="geometry" />
        </mxCell>
        <mxCell id="-VUcaM_2SgdDJ1QQ1DZj-306" value="" style="endArrow=classic;html=1;rounded=0;exitX=1;exitY=0.5;exitDx=0;exitDy=0;entryX=0;entryY=0.5;entryDx=0;entryDy=0;strokeColor=#4D4D4D;" edge="1" parent="dNxyNK7c78bLwvsdeMH5-21" target="-VUcaM_2SgdDJ1QQ1DZj-59">
          <mxGeometry width="50" height="50" relative="1" as="geometry">
            <mxPoint x="490" y="35.00000000000001" as="sourcePoint" />
            <mxPoint x="510.5" y="74.99999999999999" as="targetPoint" />
          </mxGeometry>
        </mxCell>
        <mxCell id="-VUcaM_2SgdDJ1QQ1DZj-317" value="&lt;font style=&quot;font-size: 4px;&quot;&gt;If QA First&lt;/font&gt;" style="text;html=1;strokeColor=none;fillColor=none;align=center;verticalAlign=middle;whiteSpace=wrap;rounded=0;" vertex="1" parent="dNxyNK7c78bLwvsdeMH5-21">
          <mxGeometry x="550" y="55" width="20" height="10" as="geometry" />
        </mxCell>
        <mxCell id="-VUcaM_2SgdDJ1QQ1DZj-319" value="&lt;font style=&quot;font-size: 4px;&quot;&gt;If QA First&lt;/font&gt;" style="text;html=1;strokeColor=none;fillColor=none;align=center;verticalAlign=middle;whiteSpace=wrap;rounded=0;" vertex="1" parent="dNxyNK7c78bLwvsdeMH5-21">
          <mxGeometry x="1320" y="55.00000000000001" width="30" height="10" as="geometry" />
        </mxCell>
        <mxCell id="dNxyNK7c78bLwvsdeMH5-27" value="" style="edgeStyle=orthogonalEdgeStyle;rounded=0;orthogonalLoop=1;jettySize=auto;html=1;endArrow=block;endFill=1;entryX=0;entryY=0.5;entryDx=0;entryDy=0;exitX=0.5;exitY=0;exitDx=0;exitDy=0;targetPerimeterSpacing=11;endSize=3;strokeColor=#4D4D4D;" edge="1" parent="dNxyNK7c78bLwvsdeMH5-19" source="dNxyNK7c78bLwvsdeMH5-24" target="dNxyNK7c78bLwvsdeMH5-26">
          <mxGeometry relative="1" as="geometry" />
        </mxCell>
        <mxCell id="-VUcaM_2SgdDJ1QQ1DZj-262" style="edgeStyle=orthogonalEdgeStyle;rounded=0;orthogonalLoop=1;jettySize=auto;html=1;exitX=1;exitY=0.5;exitDx=0;exitDy=0;entryX=0.5;entryY=0;entryDx=0;entryDy=0;strokeColor=#4D4D4D;" edge="1" parent="dNxyNK7c78bLwvsdeMH5-19" source="-VUcaM_2SgdDJ1QQ1DZj-4" target="-VUcaM_2SgdDJ1QQ1DZj-47">
          <mxGeometry relative="1" as="geometry" />
        </mxCell>
        <mxCell id="-VUcaM_2SgdDJ1QQ1DZj-263" style="edgeStyle=orthogonalEdgeStyle;rounded=0;orthogonalLoop=1;jettySize=auto;html=1;exitX=0.5;exitY=1;exitDx=0;exitDy=0;entryX=0.5;entryY=1;entryDx=0;entryDy=0;strokeColor=#4D4D4D;" edge="1" parent="dNxyNK7c78bLwvsdeMH5-19" source="-VUcaM_2SgdDJ1QQ1DZj-118" target="dNxyNK7c78bLwvsdeMH5-26">
          <mxGeometry relative="1" as="geometry">
            <Array as="points">
              <mxPoint x="880" y="220" />
              <mxPoint x="140" y="220" />
            </Array>
          </mxGeometry>
        </mxCell>
        <mxCell id="-VUcaM_2SgdDJ1QQ1DZj-281" style="edgeStyle=orthogonalEdgeStyle;rounded=0;orthogonalLoop=1;jettySize=auto;html=1;exitX=0.5;exitY=0;exitDx=0;exitDy=0;strokeColor=#4D4D4D;entryX=-0.013;entryY=0.527;entryDx=0;entryDy=0;entryPerimeter=0;" edge="1" parent="dNxyNK7c78bLwvsdeMH5-19" source="-VUcaM_2SgdDJ1QQ1DZj-278" target="-VUcaM_2SgdDJ1QQ1DZj-242">
          <mxGeometry relative="1" as="geometry">
            <mxPoint x="1820" y="51.209999999999994" as="targetPoint" />
            <mxPoint x="1484.9999999999998" y="97.46000000000001" as="sourcePoint" />
            <Array as="points">
              <mxPoint x="1485" y="40" />
              <mxPoint x="1780" y="40" />
            </Array>
          </mxGeometry>
        </mxCell>
        <mxCell id="-VUcaM_2SgdDJ1QQ1DZj-81" value="" style="endArrow=classic;html=1;rounded=0;exitX=1;exitY=0.5;exitDx=0;exitDy=0;entryX=0;entryY=0.5;entryDx=0;entryDy=0;strokeColor=#4D4D4D;" edge="1" parent="dNxyNK7c78bLwvsdeMH5-19" source="-VUcaM_2SgdDJ1QQ1DZj-59" target="-VUcaM_2SgdDJ1QQ1DZj-67">
          <mxGeometry width="50" height="50" relative="1" as="geometry">
            <mxPoint x="560" y="152.5" as="sourcePoint" />
            <mxPoint x="610" y="81.25" as="targetPoint" />
          </mxGeometry>
        </mxCell>
        <mxCell id="-VUcaM_2SgdDJ1QQ1DZj-99" style="edgeStyle=orthogonalEdgeStyle;rounded=0;orthogonalLoop=1;jettySize=auto;html=1;exitX=0.5;exitY=0;exitDx=0;exitDy=0;strokeColor=#4D4D4D;entryX=0;entryY=0.5;entryDx=0;entryDy=0;" edge="1" parent="dNxyNK7c78bLwvsdeMH5-19" source="-VUcaM_2SgdDJ1QQ1DZj-264" target="-VUcaM_2SgdDJ1QQ1DZj-127">
          <mxGeometry relative="1" as="geometry">
            <mxPoint x="1040" y="50" as="targetPoint" />
            <mxPoint x="704.9999999999998" y="101.25" as="sourcePoint" />
            <Array as="points">
              <mxPoint x="715" y="45" />
            </Array>
          </mxGeometry>
        </mxCell>
        <mxCell id="-VUcaM_2SgdDJ1QQ1DZj-267" value="" style="endArrow=classic;html=1;rounded=0;exitX=1;exitY=0.5;exitDx=0;exitDy=0;entryX=0;entryY=0.5;entryDx=0;entryDy=0;strokeColor=#4D4D4D;" edge="1" parent="dNxyNK7c78bLwvsdeMH5-19" source="-VUcaM_2SgdDJ1QQ1DZj-67" target="-VUcaM_2SgdDJ1QQ1DZj-264">
          <mxGeometry width="50" height="50" relative="1" as="geometry">
            <mxPoint x="660" y="115.59000000000006" as="sourcePoint" />
            <mxPoint x="690" y="150.59" as="targetPoint" />
          </mxGeometry>
        </mxCell>
        <mxCell id="dNxyNK7c78bLwvsdeMH5-22" value="&lt;font color=&quot;#ffffff&quot;&gt;QA&lt;/font&gt;" style="swimlane;html=1;startSize=20;horizontal=0;swimlaneFillColor=#CCCCFF;fillColor=#4B375B;strokeColor=none;" vertex="1" parent="dNxyNK7c78bLwvsdeMH5-19">
          <mxGeometry y="155" width="1910" height="70" as="geometry" />
        </mxCell>
        <mxCell id="dNxyNK7c78bLwvsdeMH5-24" value="&lt;p style=&quot;line-height: 59%;&quot;&gt;&lt;font style=&quot;font-size: 7px;&quot;&gt;Releases / Software Requests&lt;/font&gt;&lt;/p&gt;" style="rounded=0;whiteSpace=wrap;html=1;fontFamily=Helvetica;fontSize=12;fontColor=#000000;align=center;strokeColor=default;" vertex="1" parent="dNxyNK7c78bLwvsdeMH5-22">
          <mxGeometry x="40" y="-20" width="40" height="40" as="geometry" />
        </mxCell>
        <mxCell id="-VUcaM_2SgdDJ1QQ1DZj-64" value="&lt;p style=&quot;line-height: 70%;&quot;&gt;&lt;span style=&quot;font-size: 7px;&quot;&gt;Testing Flowchart&lt;/span&gt;&lt;/p&gt;" style="rounded=0;whiteSpace=wrap;html=1;fontFamily=Helvetica;fontSize=12;fontColor=#000000;align=center;strokeColor=none;" vertex="1" parent="dNxyNK7c78bLwvsdeMH5-22">
          <mxGeometry x="450" y="16.25" width="40" height="40" as="geometry" />
        </mxCell>
        <mxCell id="-VUcaM_2SgdDJ1QQ1DZj-68" value="&lt;p style=&quot;line-height: 0%;&quot;&gt;&lt;span style=&quot;font-size: 7px;&quot;&gt;Testing&lt;/span&gt;&lt;/p&gt;&lt;p style=&quot;line-height: 0%;&quot;&gt;&lt;span style=&quot;font-size: 7px;&quot;&gt;Flowchart&lt;/span&gt;&lt;/p&gt;" style="rounded=0;whiteSpace=wrap;html=1;fontFamily=Helvetica;fontSize=12;fontColor=#000000;align=center;strokeColor=none;" vertex="1" parent="dNxyNK7c78bLwvsdeMH5-22">
          <mxGeometry x="610" y="13.75" width="40" height="40" as="geometry" />
        </mxCell>
        <mxCell id="-VUcaM_2SgdDJ1QQ1DZj-86" value="" style="endArrow=classic;html=1;rounded=0;strokeColor=#4D4D4D;exitX=1;exitY=0.5;exitDx=0;exitDy=0;entryX=0;entryY=0.5;entryDx=0;entryDy=0;" edge="1" parent="dNxyNK7c78bLwvsdeMH5-22" source="-VUcaM_2SgdDJ1QQ1DZj-59" target="-VUcaM_2SgdDJ1QQ1DZj-68">
          <mxGeometry width="50" height="50" relative="1" as="geometry">
            <mxPoint x="560" y="5" as="sourcePoint" />
            <mxPoint x="610" y="36.25" as="targetPoint" />
          </mxGeometry>
        </mxCell>
        <mxCell id="-VUcaM_2SgdDJ1QQ1DZj-310" style="edgeStyle=orthogonalEdgeStyle;rounded=0;orthogonalLoop=1;jettySize=auto;html=1;exitX=0.5;exitY=1;exitDx=0;exitDy=0;endArrow=none;endFill=0;" edge="1" parent="dNxyNK7c78bLwvsdeMH5-22" source="-VUcaM_2SgdDJ1QQ1DZj-118">
          <mxGeometry relative="1" as="geometry">
            <mxPoint x="880.2857142857144" y="65" as="targetPoint" />
          </mxGeometry>
        </mxCell>
        <mxCell id="-VUcaM_2SgdDJ1QQ1DZj-118" value="&lt;p style=&quot;line-height: 70%;&quot;&gt;&lt;font style=&quot;font-size: 7px;&quot;&gt;Raise Bugs&lt;br&gt;/Comment&lt;/font&gt;&lt;/p&gt;" style="rounded=0;whiteSpace=wrap;html=1;fontFamily=Helvetica;fontSize=12;fontColor=#000000;align=center;strokeColor=none;" vertex="1" parent="dNxyNK7c78bLwvsdeMH5-22">
          <mxGeometry x="860" y="-20" width="40" height="40" as="geometry" />
        </mxCell>
        <mxCell id="-VUcaM_2SgdDJ1QQ1DZj-271" style="edgeStyle=orthogonalEdgeStyle;rounded=0;orthogonalLoop=1;jettySize=auto;html=1;strokeColor=#4D4D4D;" edge="1" parent="dNxyNK7c78bLwvsdeMH5-22" source="-VUcaM_2SgdDJ1QQ1DZj-264">
          <mxGeometry relative="1" as="geometry">
            <mxPoint x="860" y="1.2499999999999432" as="targetPoint" />
          </mxGeometry>
        </mxCell>
        <mxCell id="-VUcaM_2SgdDJ1QQ1DZj-276" value="&lt;p style=&quot;line-height: 70%;&quot;&gt;&lt;font style=&quot;font-size: 7px;&quot;&gt;Raise Bugs&lt;br&gt;/Comment&lt;/font&gt;&lt;/p&gt;" style="rounded=0;whiteSpace=wrap;html=1;fontFamily=Helvetica;fontSize=12;fontColor=#000000;align=center;strokeColor=none;" vertex="1" parent="dNxyNK7c78bLwvsdeMH5-22">
          <mxGeometry x="1640" y="-23.79" width="40" height="40" as="geometry" />
        </mxCell>
        <mxCell id="-VUcaM_2SgdDJ1QQ1DZj-277" style="edgeStyle=orthogonalEdgeStyle;rounded=0;orthogonalLoop=1;jettySize=auto;html=1;strokeColor=#4D4D4D;" edge="1" parent="dNxyNK7c78bLwvsdeMH5-22" source="-VUcaM_2SgdDJ1QQ1DZj-278">
          <mxGeometry relative="1" as="geometry">
            <mxPoint x="1640" y="-2.540000000000057" as="targetPoint" />
          </mxGeometry>
        </mxCell>
        <mxCell id="-VUcaM_2SgdDJ1QQ1DZj-282" style="edgeStyle=orthogonalEdgeStyle;rounded=0;orthogonalLoop=1;jettySize=auto;html=1;exitX=0.5;exitY=1;exitDx=0;exitDy=0;endArrow=none;endFill=0;strokeColor=#4D4D4D;" edge="1" parent="dNxyNK7c78bLwvsdeMH5-22" source="-VUcaM_2SgdDJ1QQ1DZj-276">
          <mxGeometry relative="1" as="geometry">
            <mxPoint x="140" y="5" as="targetPoint" />
            <Array as="points">
              <mxPoint x="1660" y="65" />
            </Array>
          </mxGeometry>
        </mxCell>
        <mxCell id="-VUcaM_2SgdDJ1QQ1DZj-59" value="&lt;p style=&quot;line-height: 71%;&quot;&gt;&lt;font style=&quot;font-size: 7px;&quot;&gt;Bugs&lt;/font&gt;&lt;/p&gt;" style="rhombus;whiteSpace=wrap;html=1;strokeColor=none;" vertex="1" parent="dNxyNK7c78bLwvsdeMH5-22">
          <mxGeometry x="510" y="-17.5" width="50" height="37.5" as="geometry" />
        </mxCell>
        <mxCell id="-VUcaM_2SgdDJ1QQ1DZj-296" value="" style="endArrow=classic;html=1;rounded=0;exitX=1;exitY=0.5;exitDx=0;exitDy=0;entryX=0;entryY=0.5;entryDx=0;entryDy=0;strokeColor=#4D4D4D;" edge="1" parent="dNxyNK7c78bLwvsdeMH5-22" target="-VUcaM_2SgdDJ1QQ1DZj-59">
          <mxGeometry width="50" height="50" relative="1" as="geometry">
            <mxPoint x="490" y="36.25" as="sourcePoint" />
            <mxPoint x="510.5" y="76.25" as="targetPoint" />
          </mxGeometry>
        </mxCell>
        <mxCell id="-VUcaM_2SgdDJ1QQ1DZj-264" value="&lt;p style=&quot;line-height: 71%;&quot;&gt;&lt;font style=&quot;font-size: 7px;&quot;&gt;Bugs&lt;/font&gt;&lt;/p&gt;" style="rhombus;whiteSpace=wrap;html=1;strokeColor=none;" vertex="1" parent="dNxyNK7c78bLwvsdeMH5-22">
          <mxGeometry x="690" y="-16.91" width="50" height="37.5" as="geometry" />
        </mxCell>
        <mxCell id="-VUcaM_2SgdDJ1QQ1DZj-268" value="" style="endArrow=classic;html=1;rounded=0;entryX=0;entryY=0.5;entryDx=0;entryDy=0;strokeColor=#4D4D4D;" edge="1" parent="dNxyNK7c78bLwvsdeMH5-22" target="-VUcaM_2SgdDJ1QQ1DZj-264">
          <mxGeometry width="50" height="50" relative="1" as="geometry">
            <mxPoint x="650" y="35" as="sourcePoint" />
            <mxPoint x="690" y="0.59" as="targetPoint" />
          </mxGeometry>
        </mxCell>
        <mxCell id="-VUcaM_2SgdDJ1QQ1DZj-63" value="&lt;font style=&quot;font-size: 7px;&quot;&gt;No&lt;/font&gt;" style="text;html=1;strokeColor=none;fillColor=none;align=center;verticalAlign=middle;whiteSpace=wrap;rounded=0;" vertex="1" parent="dNxyNK7c78bLwvsdeMH5-22">
          <mxGeometry x="570" y="-5.659999999999997" width="10" height="10" as="geometry" />
        </mxCell>
        <mxCell id="-VUcaM_2SgdDJ1QQ1DZj-314" style="edgeStyle=orthogonalEdgeStyle;rounded=0;orthogonalLoop=1;jettySize=auto;html=1;entryX=0.5;entryY=0;entryDx=0;entryDy=0;strokeColor=#4D4D4D;" edge="1" parent="dNxyNK7c78bLwvsdeMH5-22" source="-VUcaM_2SgdDJ1QQ1DZj-59" target="-VUcaM_2SgdDJ1QQ1DZj-118">
          <mxGeometry relative="1" as="geometry">
            <Array as="points">
              <mxPoint x="535" y="-95" />
              <mxPoint x="880" y="-95" />
            </Array>
          </mxGeometry>
        </mxCell>
        <mxCell id="-VUcaM_2SgdDJ1QQ1DZj-278" value="&lt;p style=&quot;line-height: 71%;&quot;&gt;&lt;font style=&quot;font-size: 7px;&quot;&gt;Bugs&lt;/font&gt;&lt;/p&gt;" style="rhombus;whiteSpace=wrap;html=1;strokeColor=none;" vertex="1" parent="dNxyNK7c78bLwvsdeMH5-22">
          <mxGeometry x="1460" y="-21.29" width="50" height="37.5" as="geometry" />
        </mxCell>
        <mxCell id="-VUcaM_2SgdDJ1QQ1DZj-300" value="&lt;font style=&quot;font-size: 7px;&quot;&gt;No&lt;/font&gt;" style="text;html=1;strokeColor=none;fillColor=none;align=center;verticalAlign=middle;whiteSpace=wrap;rounded=0;" vertex="1" parent="dNxyNK7c78bLwvsdeMH5-22">
          <mxGeometry x="1350" y="-5.659999999999968" width="10" height="10" as="geometry" />
        </mxCell>
        <mxCell id="-VUcaM_2SgdDJ1QQ1DZj-315" style="edgeStyle=orthogonalEdgeStyle;rounded=0;orthogonalLoop=1;jettySize=auto;html=1;exitX=0.5;exitY=0;exitDx=0;exitDy=0;entryX=0.5;entryY=0;entryDx=0;entryDy=0;strokeColor=#4D4D4D;" edge="1" parent="dNxyNK7c78bLwvsdeMH5-22" source="-VUcaM_2SgdDJ1QQ1DZj-302" target="-VUcaM_2SgdDJ1QQ1DZj-276">
          <mxGeometry relative="1" as="geometry">
            <Array as="points">
              <mxPoint x="1316" y="-85" />
              <mxPoint x="1660" y="-85" />
            </Array>
          </mxGeometry>
        </mxCell>
        <mxCell id="-VUcaM_2SgdDJ1QQ1DZj-302" value="&lt;p style=&quot;line-height: 71%;&quot;&gt;&lt;font style=&quot;font-size: 7px;&quot;&gt;Bugs&lt;/font&gt;&lt;/p&gt;" style="rhombus;whiteSpace=wrap;html=1;strokeColor=none;" vertex="1" parent="dNxyNK7c78bLwvsdeMH5-22">
          <mxGeometry x="1290.5" y="-18.160000000000004" width="50" height="37.5" as="geometry" />
        </mxCell>
        <mxCell id="-VUcaM_2SgdDJ1QQ1DZj-318" value="&lt;font style=&quot;font-size: 4px;&quot;&gt;If BU First&lt;/font&gt;" style="text;html=1;strokeColor=none;fillColor=none;align=center;verticalAlign=middle;whiteSpace=wrap;rounded=0;" vertex="1" parent="dNxyNK7c78bLwvsdeMH5-22">
          <mxGeometry x="550" y="4.34" width="20" height="10" as="geometry" />
        </mxCell>
        <mxCell id="-VUcaM_2SgdDJ1QQ1DZj-320" value="&lt;font style=&quot;font-size: 4px;&quot;&gt;If BU First&lt;/font&gt;" style="text;html=1;strokeColor=none;fillColor=none;align=center;verticalAlign=middle;whiteSpace=wrap;rounded=0;" vertex="1" parent="dNxyNK7c78bLwvsdeMH5-22">
          <mxGeometry x="1330" y="6.25" width="20" height="3.75" as="geometry" />
        </mxCell>
        <mxCell id="-VUcaM_2SgdDJ1QQ1DZj-66" value="&lt;font style=&quot;font-size: 7px;&quot;&gt;QA&lt;/font&gt;" style="text;html=1;strokeColor=none;fillColor=none;align=center;verticalAlign=middle;whiteSpace=wrap;rounded=0;" vertex="1" parent="dNxyNK7c78bLwvsdeMH5-22">
          <mxGeometry x="410" y="26.25" width="10" height="10" as="geometry" />
        </mxCell>
        <mxCell id="-VUcaM_2SgdDJ1QQ1DZj-136" style="edgeStyle=orthogonalEdgeStyle;rounded=0;orthogonalLoop=1;jettySize=auto;html=1;exitX=0.5;exitY=1;exitDx=0;exitDy=0;entryX=0;entryY=0.5;entryDx=0;entryDy=0;strokeColor=#4D4D4D;" edge="1" parent="dNxyNK7c78bLwvsdeMH5-19" source="-VUcaM_2SgdDJ1QQ1DZj-47" target="-VUcaM_2SgdDJ1QQ1DZj-64">
          <mxGeometry relative="1" as="geometry" />
        </mxCell>
        <mxCell id="-VUcaM_2SgdDJ1QQ1DZj-20" value="" style="endArrow=none;dashed=1;html=1;rounded=0;strokeColor=#666666;" edge="1" parent="1">
          <mxGeometry width="50" height="50" relative="1" as="geometry">
            <mxPoint x="230" y="380" as="sourcePoint" />
            <mxPoint x="230" y="100" as="targetPoint" />
          </mxGeometry>
        </mxCell>
        <mxCell id="-VUcaM_2SgdDJ1QQ1DZj-246" value="" style="endArrow=none;dashed=1;html=1;rounded=0;strokeColor=#666666;" edge="1" parent="1">
          <mxGeometry width="50" height="50" relative="1" as="geometry">
            <mxPoint x="440" y="385" as="sourcePoint" />
            <mxPoint x="440" y="105" as="targetPoint" />
          </mxGeometry>
        </mxCell>
        <mxCell id="-VUcaM_2SgdDJ1QQ1DZj-171" value="" style="endArrow=none;dashed=1;html=1;rounded=0;strokeColor=#666666;" edge="1" parent="1">
          <mxGeometry width="50" height="50" relative="1" as="geometry">
            <mxPoint x="1695" y="367.5" as="sourcePoint" />
            <mxPoint x="1695" y="87.5" as="targetPoint" />
          </mxGeometry>
        </mxCell>
        <mxCell id="-VUcaM_2SgdDJ1QQ1DZj-248" value="&lt;font style=&quot;font-size: 8px;&quot;&gt;Staging Approved&lt;/font&gt;" style="text;html=1;strokeColor=none;fillColor=none;align=center;verticalAlign=middle;whiteSpace=wrap;rounded=0;" vertex="1" parent="1">
          <mxGeometry x="1150" y="87.5" width="80" height="30" as="geometry" />
        </mxCell>
        <mxCell id="-VUcaM_2SgdDJ1QQ1DZj-291" style="edgeStyle=orthogonalEdgeStyle;rounded=0;orthogonalLoop=1;jettySize=auto;html=1;exitX=1;exitY=0.5;exitDx=0;exitDy=0;entryX=0.5;entryY=0;entryDx=0;entryDy=0;strokeColor=#4D4D4D;" edge="1" parent="1" source="-VUcaM_2SgdDJ1QQ1DZj-127" target="-VUcaM_2SgdDJ1QQ1DZj-142">
          <mxGeometry relative="1" as="geometry" />
        </mxCell>
        <mxCell id="-VUcaM_2SgdDJ1QQ1DZj-140" style="edgeStyle=orthogonalEdgeStyle;rounded=0;orthogonalLoop=1;jettySize=auto;html=1;exitX=1;exitY=0.5;exitDx=0;exitDy=0;entryX=0;entryY=0.5;entryDx=0;entryDy=0;strokeColor=#4D4D4D;" edge="1" parent="1" source="-VUcaM_2SgdDJ1QQ1DZj-142" target="-VUcaM_2SgdDJ1QQ1DZj-143">
          <mxGeometry relative="1" as="geometry" />
        </mxCell>
        <mxCell id="-VUcaM_2SgdDJ1QQ1DZj-142" value="&lt;p style=&quot;line-height: 50%;&quot;&gt;&lt;font style=&quot;font-size: 7px;&quot;&gt;Who &lt;br&gt;tests &lt;br&gt;first &lt;br&gt;?&lt;/font&gt;&lt;/p&gt;" style="rhombus;whiteSpace=wrap;html=1;strokeColor=none;" vertex="1" parent="1">
          <mxGeometry x="1290" y="197.5" width="40" height="50" as="geometry" />
        </mxCell>
        <mxCell id="-VUcaM_2SgdDJ1QQ1DZj-143" value="&lt;p style=&quot;line-height: 70%;&quot;&gt;&lt;font style=&quot;font-size: 7px;&quot;&gt;UAT&lt;br&gt;testing&lt;/font&gt;&lt;/p&gt;" style="rounded=0;whiteSpace=wrap;html=1;fontFamily=Helvetica;fontSize=12;fontColor=#000000;align=center;strokeColor=none;" vertex="1" parent="1">
          <mxGeometry x="1355" y="202.5" width="40" height="40" as="geometry" />
        </mxCell>
        <mxCell id="-VUcaM_2SgdDJ1QQ1DZj-144" value="&lt;font style=&quot;font-size: 7px;&quot;&gt;BU&lt;/font&gt;" style="text;html=1;strokeColor=none;fillColor=none;align=center;verticalAlign=middle;whiteSpace=wrap;rounded=0;" vertex="1" parent="1">
          <mxGeometry x="1330" y="207.5" width="10" height="10" as="geometry" />
        </mxCell>
        <mxCell id="-VUcaM_2SgdDJ1QQ1DZj-149" value="&lt;p style=&quot;line-height: 70%;&quot;&gt;&lt;font style=&quot;font-size: 7px;&quot;&gt;UAT&lt;br&gt;testing&lt;/font&gt;&lt;/p&gt;" style="rounded=0;whiteSpace=wrap;html=1;fontFamily=Helvetica;fontSize=12;fontColor=#000000;align=center;strokeColor=none;" vertex="1" parent="1">
          <mxGeometry x="1515" y="202.5" width="40" height="40" as="geometry" />
        </mxCell>
        <mxCell id="-VUcaM_2SgdDJ1QQ1DZj-159" value="&lt;p style=&quot;line-height: 70%;&quot;&gt;&lt;span style=&quot;font-size: 7px;&quot;&gt;Testing Flowchart&lt;/span&gt;&lt;/p&gt;" style="rounded=0;whiteSpace=wrap;html=1;fontFamily=Helvetica;fontSize=12;fontColor=#000000;align=center;strokeColor=none;" vertex="1" parent="1">
          <mxGeometry x="1355" y="273.75" width="40" height="40" as="geometry" />
        </mxCell>
        <mxCell id="-VUcaM_2SgdDJ1QQ1DZj-160" value="&lt;font style=&quot;font-size: 7px;&quot;&gt;QA&lt;/font&gt;" style="text;html=1;strokeColor=none;fillColor=none;align=center;verticalAlign=middle;whiteSpace=wrap;rounded=0;" vertex="1" parent="1">
          <mxGeometry x="1315" y="283.75" width="10" height="10" as="geometry" />
        </mxCell>
        <mxCell id="-VUcaM_2SgdDJ1QQ1DZj-162" value="&lt;p style=&quot;line-height: 0%;&quot;&gt;&lt;span style=&quot;font-size: 7px;&quot;&gt;Testing&lt;/span&gt;&lt;/p&gt;&lt;p style=&quot;line-height: 0%;&quot;&gt;&lt;span style=&quot;font-size: 7px;&quot;&gt;Flowchart&lt;/span&gt;&lt;/p&gt;" style="rounded=0;whiteSpace=wrap;html=1;fontFamily=Helvetica;fontSize=12;fontColor=#000000;align=center;strokeColor=none;" vertex="1" parent="1">
          <mxGeometry x="1515" y="271.25" width="40" height="40" as="geometry" />
        </mxCell>
        <mxCell id="-VUcaM_2SgdDJ1QQ1DZj-169" style="edgeStyle=orthogonalEdgeStyle;rounded=0;orthogonalLoop=1;jettySize=auto;html=1;exitX=0.5;exitY=1;exitDx=0;exitDy=0;entryX=0;entryY=0.5;entryDx=0;entryDy=0;strokeColor=#4D4D4D;" edge="1" parent="1" source="-VUcaM_2SgdDJ1QQ1DZj-142" target="-VUcaM_2SgdDJ1QQ1DZj-159">
          <mxGeometry relative="1" as="geometry" />
        </mxCell>
        <mxCell id="-VUcaM_2SgdDJ1QQ1DZj-170" value="" style="endArrow=none;dashed=1;html=1;rounded=0;strokeColor=#666666;" edge="1" parent="1">
          <mxGeometry width="50" height="50" relative="1" as="geometry">
            <mxPoint x="1500" y="367.5" as="sourcePoint" />
            <mxPoint x="1500" y="87.5" as="targetPoint" />
          </mxGeometry>
        </mxCell>
        <mxCell id="-VUcaM_2SgdDJ1QQ1DZj-172" value="&lt;font style=&quot;font-size: 8px;&quot;&gt;Prod QA2&lt;/font&gt;" style="text;html=1;strokeColor=none;fillColor=none;align=center;verticalAlign=middle;whiteSpace=wrap;rounded=0;" vertex="1" parent="1">
          <mxGeometry x="1565" y="87.5" width="60" height="30" as="geometry" />
        </mxCell>
        <mxCell id="-VUcaM_2SgdDJ1QQ1DZj-251" value="" style="endArrow=none;dashed=1;html=1;rounded=0;strokeColor=#666666;" edge="1" parent="1">
          <mxGeometry width="50" height="50" relative="1" as="geometry">
            <mxPoint x="1280" y="367.5" as="sourcePoint" />
            <mxPoint x="1280" y="87.5" as="targetPoint" />
          </mxGeometry>
        </mxCell>
        <mxCell id="-VUcaM_2SgdDJ1QQ1DZj-252" value="&lt;font style=&quot;font-size: 8px;&quot;&gt;Prod QA1&lt;br&gt;&lt;/font&gt;" style="text;html=1;strokeColor=none;fillColor=none;align=center;verticalAlign=middle;whiteSpace=wrap;rounded=0;" vertex="1" parent="1">
          <mxGeometry x="1355" y="87.5" width="60" height="30" as="geometry" />
        </mxCell>
        <mxCell id="-VUcaM_2SgdDJ1QQ1DZj-299" value="" style="endArrow=classic;html=1;rounded=0;exitX=1.013;exitY=0.581;exitDx=0;exitDy=0;entryX=0;entryY=0.5;entryDx=0;entryDy=0;strokeColor=#4D4D4D;exitPerimeter=0;" edge="1" parent="1" source="-VUcaM_2SgdDJ1QQ1DZj-143" target="-VUcaM_2SgdDJ1QQ1DZj-302">
          <mxGeometry width="50" height="50" relative="1" as="geometry">
            <mxPoint x="1400" y="225.34" as="sourcePoint" />
            <mxPoint x="1451" y="184.33999999999997" as="targetPoint" />
          </mxGeometry>
        </mxCell>
        <mxCell id="-VUcaM_2SgdDJ1QQ1DZj-303" value="" style="endArrow=classic;html=1;rounded=0;exitX=1;exitY=0.5;exitDx=0;exitDy=0;entryX=0;entryY=0.5;entryDx=0;entryDy=0;strokeColor=#4D4D4D;" edge="1" parent="1" source="-VUcaM_2SgdDJ1QQ1DZj-159" target="-VUcaM_2SgdDJ1QQ1DZj-302">
          <mxGeometry width="50" height="50" relative="1" as="geometry">
            <mxPoint x="1400.5" y="300.59" as="sourcePoint" />
            <mxPoint x="1421" y="340.59" as="targetPoint" />
          </mxGeometry>
        </mxCell>
        <mxCell id="-VUcaM_2SgdDJ1QQ1DZj-304" value="" style="endArrow=classic;html=1;rounded=0;exitX=1;exitY=0.5;exitDx=0;exitDy=0;entryX=0;entryY=0.5;entryDx=0;entryDy=0;strokeColor=#4D4D4D;" edge="1" parent="1" source="-VUcaM_2SgdDJ1QQ1DZj-302" target="-VUcaM_2SgdDJ1QQ1DZj-149">
          <mxGeometry width="50" height="50" relative="1" as="geometry">
            <mxPoint x="1470.5" y="261.84" as="sourcePoint" />
            <mxPoint x="1521.5" y="224.34" as="targetPoint" />
          </mxGeometry>
        </mxCell>
        <mxCell id="-VUcaM_2SgdDJ1QQ1DZj-301" value="" style="endArrow=classic;html=1;rounded=0;strokeColor=#4D4D4D;exitX=1;exitY=0.5;exitDx=0;exitDy=0;entryX=0;entryY=0.462;entryDx=0;entryDy=0;entryPerimeter=0;" edge="1" parent="1" source="-VUcaM_2SgdDJ1QQ1DZj-302" target="-VUcaM_2SgdDJ1QQ1DZj-162">
          <mxGeometry width="50" height="50" relative="1" as="geometry">
            <mxPoint x="1470.5" y="269.34" as="sourcePoint" />
            <mxPoint x="1520.5" y="300.59" as="targetPoint" />
          </mxGeometry>
        </mxCell>
        <mxCell id="-VUcaM_2SgdDJ1QQ1DZj-274" value="" style="endArrow=classic;html=1;rounded=0;exitX=0.995;exitY=0.527;exitDx=0;exitDy=0;exitPerimeter=0;entryX=0;entryY=0.5;entryDx=0;entryDy=0;strokeColor=#4D4D4D;" edge="1" parent="1" source="-VUcaM_2SgdDJ1QQ1DZj-149" target="-VUcaM_2SgdDJ1QQ1DZj-278">
          <mxGeometry width="50" height="50" relative="1" as="geometry">
            <mxPoint x="1559" y="231.21" as="sourcePoint" />
            <mxPoint x="1590" y="261.21" as="targetPoint" />
          </mxGeometry>
        </mxCell>
        <mxCell id="-VUcaM_2SgdDJ1QQ1DZj-283" value="" style="endArrow=classic;html=1;rounded=0;exitX=1;exitY=0.5;exitDx=0;exitDy=0;entryX=0;entryY=0.5;entryDx=0;entryDy=0;strokeColor=#4D4D4D;" edge="1" parent="1" source="-VUcaM_2SgdDJ1QQ1DZj-162" target="-VUcaM_2SgdDJ1QQ1DZj-278">
          <mxGeometry width="50" height="50" relative="1" as="geometry">
            <mxPoint x="1560" y="291.21" as="sourcePoint" />
            <mxPoint x="1590" y="261.21" as="targetPoint" />
          </mxGeometry>
        </mxCell>
        <mxCell id="-VUcaM_2SgdDJ1QQ1DZj-257" value="" style="endArrow=none;dashed=1;html=1;rounded=0;strokeColor=#666666;" edge="1" parent="1">
          <mxGeometry width="50" height="50" relative="1" as="geometry">
            <mxPoint x="1849.53" y="367.5" as="sourcePoint" />
            <mxPoint x="1849.53" y="87.5" as="targetPoint" />
          </mxGeometry>
        </mxCell>
        <mxCell id="-VUcaM_2SgdDJ1QQ1DZj-134" value="" style="endArrow=none;dashed=1;html=1;rounded=0;strokeColor=#666666;" edge="1" parent="1">
          <mxGeometry width="50" height="50" relative="1" as="geometry">
            <mxPoint x="930" y="370" as="sourcePoint" />
            <mxPoint x="930" y="90" as="targetPoint" />
          </mxGeometry>
        </mxCell>
        <mxCell id="-VUcaM_2SgdDJ1QQ1DZj-21" value="" style="endArrow=none;dashed=1;html=1;rounded=0;strokeColor=#666666;" edge="1" parent="1">
          <mxGeometry width="50" height="50" relative="1" as="geometry">
            <mxPoint x="640" y="380" as="sourcePoint" />
            <mxPoint x="640" y="100" as="targetPoint" />
          </mxGeometry>
        </mxCell>
        <mxCell id="-VUcaM_2SgdDJ1QQ1DZj-133" value="" style="endArrow=none;dashed=1;html=1;rounded=0;strokeColor=#666666;" edge="1" parent="1">
          <mxGeometry width="50" height="50" relative="1" as="geometry">
            <mxPoint x="1094.69" y="370" as="sourcePoint" />
            <mxPoint x="1094.69" y="90" as="targetPoint" />
          </mxGeometry>
        </mxCell>
      </root>
    </mxGraphModel>
  </diagram>
</mxfile>
